PathFileType	4	(X/Y/Z)	/home/abdul/Desktop/myosuite/custom_workspace/IK/output/S19_12_2.trc
DataRate	CameraRate	NumFrames	NumMarkers	Units	OrigDataRate	OrigDataStartFrame	OrigNumFrames
200.0	200.0	32	3	mm	200.0	1	1474
Frame#	Time	V_Shoulder			V_Elbow			V_Wrist		
		X1	Y1	Z1	X2	Y2	Z2	X3	Y3	Z3

1	0.0	-111.18716684582006	697.226436762684	318.5588422237178				-191.04617215245773	334.0401744636071	29.587326545995758
2	0.005	-111.17084295624757	697.2092842488574	318.57385971431				-191.03793954462952	334.038026734709	29.59124848500815
3	0.01	-111.15424323876759	697.1913319830581	318.58910983667243				-191.031088232647	334.0366293658958	29.595375324062424
4	0.015	-111.1373836270866	697.1725627264215	318.6045768187628				-191.02569803888053	334.03601661523845	29.599698751862903
5	0.02	-111.1202806577575	697.152959512529	318.6202443267001				-191.02184604722163	334.0362208283889	29.60420957233607
6	0.025	-111.10295143278971	697.132505668259	318.63609549904146				-191.01960612775963	334.0372721956392	29.60889774075079
7	0.03	-111.085413580994	697.1111848339705	318.65211298193816				-191.0190484497639	334.03919850479815	29.613752408147555
8	0.035	-111.06768521821431	697.0889809828774	318.66827896500774				-191.0202389841902	334.042024890535	29.618761974402695
9	0.04	-111.04978490659676	697.0658784394676	318.6845752177585				-191.0232389970115	334.0457735808659	29.623914150227243
10	0.045	-111.0317316130424	697.0418618968177	318.7009831264085				-191.02810453475055	334.0504636414769	29.629196028370703
11	0.05	-111.01354466698513	697.0169164326595	318.7174837309467				-191.03488590366752	334.05611071860005	29.634594164267714
12	0.055	-110.99524371763175	696.9910275240536	318.7340577622876				-191.04362714412883	334.06272678117205	29.640094666330427
13	0.06	-110.97684869079471	696.9641810605275	318.75068567937996				-191.05436550175307	334.0703198630202	29.645683296051367
14	0.065	-110.95837974544254	696.9363633555463	318.7673477061347				-191.06713089699582	334.0788938058316	29.65134557804081
15	0.07	-110.93985723008609	696.9075611561856	318.7840238680453				-191.08194539489722	334.08844800367046	29.657066920079416
16	0.075	-110.92130163911172	696.8777616508814	318.8006940283826				-191.09882267677511	334.098977149811	29.662832743220854
17	0.08	-110.90273356916613	696.8469524751457	318.81733792385177				-191.1177675156987	334.11047098666177	29.668628621930893
18	0.085	-110.88417367568957	696.8151217151399	318.8339351996116				-191.13877525762678	334.12291405955267	29.67444043419865
19	0.09	-110.86564262968723	696.7822579090092	318.85046544355777				-191.1618313101373	334.13628547515714	29.680254521502725
20	0.095	-110.84716107482193	696.748350045891	318.86690821978874				-191.1869106407117	334.15055866531463	29.68605785846004
21	0.1	-110.82874958490247	696.7133875625246	318.8832431011735				-191.213977286569	334.16570115701217	29.691838231928095
22	0.105	-110.81042862183692	696.6773603373916	318.8994497009546				-191.24298387806888	334.1816743492733	29.69758442927272
23	0.11	-110.7922184941113	696.6402586823386	318.915507703325				-191.2738711777203	334.19843329768776	29.70328643545273
24	0.115	-110.77413931584853	696.6020733316387	318.9313968929264				-191.30656763684254	334.2159265073027	29.7089356385113
25	0.12	-110.75621096649559	696.562795428461	318.9470971832254				-191.3409889719291	334.23409573457394	29.714525043000563
26	0.125	-110.73845305118091	696.5224165087329	318.96258864373107				-191.37703776275993	334.25287579905796	29.720049490801813
27	0.13	-110.72088486177795	696.480928482389	318.97785152602404				-191.414603074294	334.2721944054991	29.725505888738688
28	0.135	-110.70352533870505	696.4383236120138	318.992866288578				-191.45356010435376	334.2919719769407	29.73089344231517
29	0.14	-110.68639303348762	696.3945944888982	319.0076136203554				-191.493769859083	334.3121214994631	29.736213894844276
30	0.145	-110.66950607210225	696.3497340065425	319.0220744631734				-191.53507885812212	334.3325483791149	29.74147177116754
31	0.15	-110.65288211911927	696.3037353316521	319.0362300328349				-191.57731887139738	334.35315031157666	29.746674625099722
32	0.155	-110.63653834265584	696.2565918726772	319.05006183903043				-191.62030668936512	334.37381716505774	29.751833289668248
